<svg width="91" height="91" viewBox="0 0 91 91" fill="none" xmlns="http://www.w3.org/2000/svg">
<g filter="url(#filter0_d_5_65)">
<circle cx="41.3601" cy="41.28" r="25.28" fill="url(#paint0_linear_5_65)" fill-opacity="0.4" shape-rendering="crispEdges"/>
</g>
<circle cx="41.3602" cy="41.28" r="22.76" fill="url(#paint1_linear_5_65)" stroke="url(#paint2_linear_5_65)" stroke-width="0.3"/>
<mask id="mask0_5_65" style="mask-type:alpha" maskUnits="userSpaceOnUse" x="18" y="18" width="47" height="47">
<circle cx="41.3602" cy="41.28" r="22.91" fill="url(#paint3_linear_5_65)"/>
</mask>
<g mask="url(#mask0_5_65)">
<g filter="url(#filter1_f_5_65)">
<path d="M65.0602 41.28C65.0602 54.3692 54.4493 64.98 41.3602 64.98C28.271 64.98 17.6602 54.3692 17.6602 41.28C17.6602 28.1909 28.271 17.58 41.3602 17.58C54.4493 17.58 65.0602 28.1909 65.0602 41.28ZM21.2152 41.28C21.2152 52.4058 30.2344 61.425 41.3602 61.425C52.4859 61.425 61.5052 52.4058 61.5052 41.28C61.5052 30.1542 52.4859 21.135 41.3602 21.135C30.2344 21.135 21.2152 30.1542 21.2152 41.28Z" fill="url(#paint4_linear_5_65)"/>
</g>
<circle cx="41.3601" cy="41.28" r="19.75" fill="url(#paint5_linear_5_65)"/>
</g>
<path d="M50.3744 37.5039C50.2653 37.5652 47.6672 38.8584 47.6672 41.7258C47.7897 44.9959 50.9459 46.1427 51 46.1427C50.9459 46.2039 50.5235 47.7049 49.2724 49.2783C48.2795 50.6336 47.1775 52 45.504 52C43.9121 52 43.3407 51.0967 41.504 51.0967C39.5315 51.0967 38.9734 52 37.4631 52C35.7897 52 34.606 50.5603 33.559 49.2178C32.1987 47.4606 31.0425 44.703 31.0017 42.0553C30.9742 40.6522 31.2741 39.273 32.0354 38.1016C33.11 36.4661 35.0284 35.356 37.1233 35.3193C38.7285 35.2708 40.157 36.3078 41.1366 36.3078C42.0754 36.3078 43.8305 35.3193 45.8163 35.3193C46.6735 35.3201 48.9592 35.5517 50.3744 37.5039ZM41.0009 35.0392C40.7151 33.7579 41.504 32.4766 42.2387 31.6593C43.1774 30.6709 44.6601 30 45.9388 30C46.0204 31.2813 45.5031 32.5379 44.5785 33.4531C43.7489 34.4415 42.3203 35.1856 41.0009 35.0392Z" fill="#FEBA08"/>
<defs>
<filter id="filter0_d_5_65" x="0.0800781" y="0" width="90.5601" height="90.56" filterUnits="userSpaceOnUse" color-interpolation-filters="sRGB">
<feFlood flood-opacity="0" result="BackgroundImageFix"/>
<feColorMatrix in="SourceAlpha" type="matrix" values="0 0 0 0 0 0 0 0 0 0 0 0 0 0 0 0 0 0 127 0" result="hardAlpha"/>
<feOffset dx="4" dy="4"/>
<feGaussianBlur stdDeviation="10"/>
<feComposite in2="hardAlpha" operator="out"/>
<feColorMatrix type="matrix" values="0 0 0 0 0.556863 0 0 0 0 0.607843 0 0 0 0 0.682353 0 0 0 0.1 0"/>
<feBlend mode="normal" in2="BackgroundImageFix" result="effect1_dropShadow_5_65"/>
<feBlend mode="normal" in="SourceGraphic" in2="effect1_dropShadow_5_65" result="shape"/>
</filter>
<filter id="filter1_f_5_65" x="15.6602" y="15.58" width="51.3999" height="51.4" filterUnits="userSpaceOnUse" color-interpolation-filters="sRGB">
<feFlood flood-opacity="0" result="BackgroundImageFix"/>
<feBlend mode="normal" in="SourceGraphic" in2="BackgroundImageFix" result="shape"/>
<feGaussianBlur stdDeviation="1" result="effect1_foregroundBlur_5_65"/>
</filter>
<linearGradient id="paint0_linear_5_65" x1="41.3601" y1="16" x2="41.3601" y2="66.56" gradientUnits="userSpaceOnUse">
<stop stop-color="#99A0A9"/>
<stop offset="1" stop-color="white"/>
</linearGradient>
<linearGradient id="paint1_linear_5_65" x1="27.6142" y1="23.3338" x2="52.4334" y2="60.7535" gradientUnits="userSpaceOnUse">
<stop stop-color="#F5F5F9"/>
<stop offset="1" stop-color="#DADFE7"/>
</linearGradient>
<linearGradient id="paint2_linear_5_65" x1="26.8505" y1="28.2977" x2="51.2879" y2="61.899" gradientUnits="userSpaceOnUse">
<stop stop-opacity="0.3"/>
<stop offset="1" stop-opacity="0.4"/>
</linearGradient>
<linearGradient id="paint3_linear_5_65" x1="27.6142" y1="23.3338" x2="52.4334" y2="60.7535" gradientUnits="userSpaceOnUse">
<stop stop-color="#D99AFA"/>
<stop offset="1" stop-color="#BA3D4F"/>
</linearGradient>
<linearGradient id="paint4_linear_5_65" x1="27.1402" y1="22.715" x2="52.8152" y2="61.425" gradientUnits="userSpaceOnUse">
<stop stop-color="white"/>
<stop offset="1" stop-color="#CBD0D9"/>
</linearGradient>
<linearGradient id="paint5_linear_5_65" x1="31.4851" y1="24.69" x2="51.6301" y2="59.845" gradientUnits="userSpaceOnUse">
<stop stop-color="#DDE1E7"/>
<stop offset="1" stop-color="#FAFBFC"/>
</linearGradient>
</defs>
</svg>
