<svg id="Layer_2" data-name="Layer 2" xmlns="http://www.w3.org/2000/svg" width="16.723" height="16.921" viewBox="0 0 16.723 16.921">
  <g id="Layer_1" data-name="Layer 1">
    <rect id="Rectangle_1" data-name="Rectangle 1" width="16.723" height="16.921" fill="none"/>
    <g id="Group_1" data-name="Group 1" transform="translate(2.873 1.535)" opacity="0.75">
      <path id="Path_1" data-name="Path 1" d="M117.212,23.8a5.157,5.157,0,0,0-.511-1.486,4.149,4.149,0,0,0-2.581-2.032l.005-.016a4.289,4.289,0,0,0-1.141-4.339,4.208,4.208,0,0,0-4.308-.855,4.113,4.113,0,0,0-2.644,3.5L106,26.426a2.794,2.794,0,0,0,2.718,2.56H112.9A4.37,4.37,0,0,0,117.212,23.8Zm-9.224-5.023a2.151,2.151,0,0,1,1.793-2.019,2.234,2.234,0,0,1,2.562,2.624c-.4,2.274-2.731,1.807-4.356,2.536Zm6.32,7.85a3.9,3.9,0,0,1-2.245.482c-.864.02-1.716.012-2.581.012a1.722,1.722,0,0,1-1.245-.269,1.539,1.539,0,0,1-.311-1.163,2.315,2.315,0,0,1,.519-1.85,1.54,1.54,0,0,1,.921-.311c.36-.038.7-.13,1.057-.194a5.362,5.362,0,0,0,2.536-1.215c.655-.581,1.7.4,2.026.948A2.683,2.683,0,0,1,114.308,26.63Z" transform="translate(-106 -14.802)"/>
    </g>
    <path id="Path_2" data-name="Path 2" d="M116.212,22.8a5.158,5.158,0,0,0-.511-1.486,4.149,4.149,0,0,0-2.581-2.032l.005-.016a4.289,4.289,0,0,0-1.141-4.339,4.208,4.208,0,0,0-4.308-.855,4.113,4.113,0,0,0-2.644,3.5L105,25.426a2.794,2.794,0,0,0,2.718,2.56H111.9A4.37,4.37,0,0,0,116.212,22.8Zm-9.224-5.023a2.151,2.151,0,0,1,1.793-2.019,2.234,2.234,0,0,1,2.562,2.624c-.4,2.274-2.731,1.807-4.356,2.536Zm6.32,7.85a3.9,3.9,0,0,1-2.245.482c-.864.02-1.716.012-2.581.012a1.722,1.722,0,0,1-1.245-.269,1.539,1.539,0,0,1-.311-1.163,2.315,2.315,0,0,1,.519-1.85,1.54,1.54,0,0,1,.921-.311c.36-.038.7-.13,1.057-.194a5.362,5.362,0,0,0,2.536-1.215c.656-.581,1.7.4,2.026.948A2.683,2.683,0,0,1,113.308,25.63Z" transform="translate(-102.154 -12.37)"/>
  </g>
</svg>
