<svg id="Layer_2" data-name="Layer 2" xmlns="http://www.w3.org/2000/svg" xmlns:xlink="http://www.w3.org/1999/xlink" width="227.346" height="190.742" viewBox="0 0 227.346 190.742">
  <defs>
    <linearGradient id="linear-gradient" x1="0.011" y1="0.896" x2="0.819" y2="0.234" gradientUnits="objectBoundingBox">
      <stop offset="0.26" stop-color="#ff00b7"/>
      <stop offset="0.49" stop-color="#f909aa"/>
      <stop offset="0.79" stop-color="#ee1a92"/>
    </linearGradient>
    <linearGradient id="linear-gradient-2" x1="0.001" y1="0.5" x2="1.001" y2="0.5" xlink:href="#linear-gradient"/>
  </defs>
  <g id="Layer_1" data-name="Layer 1">
    <rect id="Rectangle_1" data-name="Rectangle 1" width="227.346" height="190.742" fill="none"/>
    <g id="Group_1" data-name="Group 1" transform="translate(77.992 10.891)" opacity="0.75">
      <path id="Path_1" data-name="Path 1" d="M185.537,78.658a36.584,36.584,0,0,0-3.627-10.544A29.435,29.435,0,0,0,163.6,53.7l.037-.11c2.325-7.556,2.1-22.338-8.094-30.785-5.636-5.518-18.313-11.037-30.564-6.063-7.409,2.619-18.2,11.6-18.755,24.818L106,97.266c.78,7.225,6.394,17.909,19.285,18.159h29.666C173.132,116.484,189.672,97.766,185.537,78.658ZM120.1,43.025A15.26,15.26,0,0,1,132.819,28.7c8.954-.853,19.049,3.914,18.174,18.615-2.825,16.135-19.373,12.817-30.9,17.99Zm44.838,55.691c-4.657,3.223-10.11,3.289-15.929,3.421-6.129.14-12.177.088-18.313.088-2.943,0-6.563.309-8.829-1.906-2.6-2.708-2.207-6.467-2.207-8.248-.28-6.166.956-10.58,3.679-13.126,1.766-1.655,4.231-1.942,6.534-2.207,2.553-.272,4.981-.92,7.5-1.376a38.039,38.039,0,0,0,17.99-8.616c4.65-4.12,12.067,2.862,14.37,6.725C174.935,81.417,172.793,93.278,164.935,98.715Z" transform="translate(-106 -14.802)" fill="#ff00b7"/>
    </g>
    <path id="Path_2" data-name="Path 2" d="M184.537,77.658a36.583,36.583,0,0,0-3.627-10.544A29.435,29.435,0,0,0,162.6,52.7l.037-.11c2.325-7.556,2.1-22.338-8.093-30.785-5.636-5.518-18.313-11.037-30.564-6.063-7.409,2.619-18.2,11.6-18.755,24.818L105,96.266c.78,7.225,6.394,17.909,19.285,18.159h29.666C172.132,115.484,188.672,96.766,184.537,77.658ZM119.1,42.025A15.26,15.26,0,0,1,131.819,27.7c8.954-.853,19.049,3.914,18.174,18.615-2.825,16.135-19.373,12.817-30.9,17.99Zm44.838,55.691c-4.657,3.223-10.11,3.289-15.929,3.421-6.129.14-12.177.088-18.313.088-2.943,0-6.563.309-8.829-1.906-2.6-2.708-2.207-6.467-2.207-8.248-.28-6.166.957-10.58,3.679-13.126,1.766-1.655,4.231-1.942,6.534-2.207,2.553-.272,4.981-.92,7.5-1.376a38.039,38.039,0,0,0,17.99-8.616c4.65-4.12,12.067,2.862,14.37,6.725,5.209,7.946,3.068,19.807-4.79,25.244Z" transform="translate(-27.744 -3.647)" fill="url(#linear-gradient)"/>
    <path id="Path_3" data-name="Path 3" d="M31.783,224.069H10.24V175.25H29.37c5.364.044,10.735.957,14.083,4.415,4.415,4.554,4.569,13.457-.427,17.04a11.25,11.25,0,0,1-3.517,2.023c10.117,1.884,13.141,13.45,6.475,20.815Q41.922,224.061,31.783,224.069ZM21.225,195.013h5.209c4.8-.213,8.984,0,9.013-5.2s-3.819-5.15-8.947-5.342H21.225Zm0,19.866h7.534c5.033-.2,9.381-.287,9.433-5.695,0-5.555-5.092-5.334-10.492-5.548H21.225Z" transform="translate(-2.706 -46.306)"/>
    <path id="Path_4" data-name="Path 4" d="M108.811,208.445c.118,17.953-22.073,25.531-34.361,13.759-7.623-7.063-7.6-20.469,0-27.555A19.532,19.532,0,0,1,88.8,189C99.783,188.763,109,197.511,108.811,208.445Zm-29.431,0c-.11,5.71,3.679,10.463,9.4,10.4,12.56.11,12.508-20.962,0-20.881C83.036,197.909,79.269,202.75,79.38,208.445Z" transform="translate(-18.163 -49.937)"/>
    <path id="Path_5" data-name="Path 5" d="M168.37,208.455c.118,17.953-22.073,25.531-34.368,13.759-7.615-7.063-7.593-20.469,0-27.555a19.623,19.623,0,0,1,14.333-5.621A19.363,19.363,0,0,1,168.37,208.455Zm-29.431,0c-.1,5.71,3.679,10.463,9.4,10.4,12.552.11,12.508-20.962,0-20.881-5.754-.059-9.514,4.783-9.411,10.477Z" transform="translate(-33.9 -49.947)"/>
    <path id="Path_6" data-name="Path 6" d="M195.843,190.53l6.482,10.058,6.688-10.058H221.4L208.38,208.924l13.494,19.182H209.293l-7.395-10.3-7.181,10.3H182.54l13.244-19.13-12.508-18.438Z" transform="translate(-48.232 -50.343)"/>
    <path id="Path_7" data-name="Path 7" d="M255.145,214.647c3.348,4.51,11.412,4.532,14.715,0q2.715-3.385,2.715-9.249V178.44H283.56v27.3c.25,13.362-8.219,22.007-21.058,22s-21.337-8.7-21.124-22v-27.3h10.985V205.4Q252.393,211.226,255.145,214.647Z" transform="translate(-63.778 -47.149)" fill="url(#linear-gradient-2)"/>
  </g>
</svg>
