<svg xmlns="http://www.w3.org/2000/svg" width="15.853" height="13.988" viewBox="0 0 15.853 13.988">
  <g id="briefcase" transform="translate(0 -30.125)">
    <path id="Path_2162" data-name="Path 2162" d="M13.482,139.829a8.751,8.751,0,0,1-3.592,1.546,1.982,1.982,0,0,1-3.926,0,8.751,8.751,0,0,1-3.592-1.546A5.426,5.426,0,0,1,0,135.5v8.437a2.29,2.29,0,0,0,2.287,2.287H13.566a2.29,2.29,0,0,0,2.287-2.287V135.5A5.426,5.426,0,0,1,13.482,139.829Z" transform="translate(0 -102.112)"/>
    <path id="Path_2163" data-name="Path 2163" d="M35.015,38.31v-.844A.464.464,0,0,1,35.479,37h3.037a.464.464,0,0,1,.464.464v.844c2.9-.629,5.015-2.6,5.015-4.922v-.464H40.26V32a1.877,1.877,0,0,0-1.875-1.875H35.61A1.877,1.877,0,0,0,33.735,32v.923H30v.464C30,35.713,32.119,37.681,35.015,38.31ZM34.664,32a.948.948,0,0,1,.946-.946h2.775a.948.948,0,0,1,.946.946v.923H34.664V32Z" transform="translate(-29.071 0)"/>
    <path id="Path_2164" data-name="Path 2164" d="M224.073,282.215h-2.108v1.054a1.054,1.054,0,1,0,2.108,0Z" transform="translate(-215.092 -244.285)"/>
  </g>
</svg>
