<svg width="91" height="91" viewBox="0 0 91 91" fill="none" xmlns="http://www.w3.org/2000/svg">
<g filter="url(#filter0_d_5_63)">
<circle cx="41.28" cy="41.28" r="25.28" fill="url(#paint0_linear_5_63)" fill-opacity="0.4" shape-rendering="crispEdges"/>
</g>
<circle cx="41.2801" cy="41.28" r="22.76" fill="url(#paint1_linear_5_63)" stroke="url(#paint2_linear_5_63)" stroke-width="0.3"/>
<mask id="mask0_5_63" style="mask-type:alpha" maskUnits="userSpaceOnUse" x="18" y="18" width="47" height="47">
<circle cx="41.2801" cy="41.28" r="22.91" fill="url(#paint3_linear_5_63)"/>
</mask>
<g mask="url(#mask0_5_63)">
<g filter="url(#filter1_f_5_63)">
<path d="M64.9801 41.28C64.9801 54.3692 54.3692 64.98 41.2801 64.98C28.1909 64.98 17.5801 54.3692 17.5801 41.28C17.5801 28.1909 28.1909 17.58 41.2801 17.58C54.3692 17.58 64.9801 28.1909 64.9801 41.28ZM21.1351 41.28C21.1351 52.4058 30.1543 61.425 41.2801 61.425C52.4059 61.425 61.4251 52.4058 61.4251 41.28C61.4251 30.1542 52.4059 21.135 41.2801 21.135C30.1543 21.135 21.1351 30.1542 21.1351 41.28Z" fill="url(#paint4_linear_5_63)"/>
</g>
<path d="M55 41C55 33.3 48.7 27 41 27C33.3 27 27 33.3 27 41C27 48 32.075 53.775 38.725 54.825V45.025H35.225V41H38.725V37.85C38.725 34.35 40.825 32.425 43.975 32.425C45.55 32.425 47.125 32.775 47.125 32.775V36.275H45.375C43.625 36.275 43.1 37.325 43.1 38.375V41H46.95L46.25 45.025H42.925V55C49.925 53.95 55 48 55 41Z" fill="#1877F2"/>
</g>
<defs>
<filter id="filter0_d_5_63" x="0" y="0" width="90.5601" height="90.56" filterUnits="userSpaceOnUse" color-interpolation-filters="sRGB">
<feFlood flood-opacity="0" result="BackgroundImageFix"/>
<feColorMatrix in="SourceAlpha" type="matrix" values="0 0 0 0 0 0 0 0 0 0 0 0 0 0 0 0 0 0 127 0" result="hardAlpha"/>
<feOffset dx="4" dy="4"/>
<feGaussianBlur stdDeviation="10"/>
<feComposite in2="hardAlpha" operator="out"/>
<feColorMatrix type="matrix" values="0 0 0 0 0.556863 0 0 0 0 0.607843 0 0 0 0 0.682353 0 0 0 0.1 0"/>
<feBlend mode="normal" in2="BackgroundImageFix" result="effect1_dropShadow_5_63"/>
<feBlend mode="normal" in="SourceGraphic" in2="effect1_dropShadow_5_63" result="shape"/>
</filter>
<filter id="filter1_f_5_63" x="15.5801" y="15.58" width="51.3999" height="51.4" filterUnits="userSpaceOnUse" color-interpolation-filters="sRGB">
<feFlood flood-opacity="0" result="BackgroundImageFix"/>
<feBlend mode="normal" in="SourceGraphic" in2="BackgroundImageFix" result="shape"/>
<feGaussianBlur stdDeviation="1" result="effect1_foregroundBlur_5_63"/>
</filter>
<linearGradient id="paint0_linear_5_63" x1="41.28" y1="16" x2="41.28" y2="66.56" gradientUnits="userSpaceOnUse">
<stop stop-color="#99A0A9"/>
<stop offset="1" stop-color="white"/>
</linearGradient>
<linearGradient id="paint1_linear_5_63" x1="27.5341" y1="23.3338" x2="52.3533" y2="60.7535" gradientUnits="userSpaceOnUse">
<stop stop-color="#F5F5F9"/>
<stop offset="1" stop-color="#DADFE7"/>
</linearGradient>
<linearGradient id="paint2_linear_5_63" x1="26.7705" y1="28.2977" x2="51.2078" y2="61.899" gradientUnits="userSpaceOnUse">
<stop stop-opacity="0.3"/>
<stop offset="1" stop-opacity="0.4"/>
</linearGradient>
<linearGradient id="paint3_linear_5_63" x1="27.5341" y1="23.3338" x2="52.3533" y2="60.7535" gradientUnits="userSpaceOnUse">
<stop stop-color="#D99AFA"/>
<stop offset="1" stop-color="#BA3D4F"/>
</linearGradient>
<linearGradient id="paint4_linear_5_63" x1="27.0601" y1="22.715" x2="52.7351" y2="61.425" gradientUnits="userSpaceOnUse">
<stop stop-color="white"/>
<stop offset="1" stop-color="#CBD0D9"/>
</linearGradient>
</defs>
</svg>
