<svg xmlns="http://www.w3.org/2000/svg" width="31.963" height="20.295" viewBox="0 0 31.963 20.295">
  <g id="group" transform="translate(0 -92.25)">
    <g id="Group_2515" data-name="Group 2515" transform="translate(0 92.25)">
      <path id="Path_2165" data-name="Path 2165" d="M27.644,101.18a3.649,3.649,0,1,0-4.187,0,6.323,6.323,0,0,0-2.157,1.265,8.182,8.182,0,0,0-2.96-1.613,4.623,4.623,0,1,0-4.781,0,8.25,8.25,0,0,0-2.928,1.594,6.374,6.374,0,0,0-2.131-1.24,3.649,3.649,0,1,0-4.187,0A6.405,6.405,0,0,0,0,107.239v.417a.027.027,0,0,0,.025.025H7.76a8.506,8.506,0,0,0-.07,1.069v.43a3.363,3.363,0,0,0,3.365,3.365h9.8a3.363,3.363,0,0,0,3.365-3.365v-.43a8.506,8.506,0,0,0-.07-1.069h7.785a.027.027,0,0,0,.025-.025v-.417A6.43,6.43,0,0,0,27.644,101.18Zm-4.731-2.991a2.637,2.637,0,1,1,2.688,2.637h-.1A2.633,2.633,0,0,1,22.913,98.189ZM12.326,96.873a3.611,3.611,0,1,1,3.82,3.6h-.417A3.616,3.616,0,0,1,12.326,96.873ZM3.75,98.189a2.637,2.637,0,1,1,2.688,2.637h-.1A2.638,2.638,0,0,1,3.75,98.189Zm4.187,8.475H1.025a5.4,5.4,0,0,1,5.325-4.825h.076a5.347,5.347,0,0,1,3.447,1.284A8.3,8.3,0,0,0,7.937,106.663ZM23.2,109.18a2.356,2.356,0,0,1-2.353,2.353h-9.8A2.356,2.356,0,0,1,8.69,109.18v-.43a7.265,7.265,0,0,1,7.039-7.254c.07.006.145.006.215.006s.145,0,.215-.006A7.265,7.265,0,0,1,23.2,108.75Zm.753-2.517a8.282,8.282,0,0,0-1.916-3.516,5.373,5.373,0,0,1,3.478-1.309h.076a5.4,5.4,0,0,1,5.325,4.825Z" transform="translate(0 -92.25)"/>
    </g>
  </g>
</svg>
