<svg xmlns="http://www.w3.org/2000/svg" width="14.565" height="14.317" viewBox="0 0 14.565 14.317">
  <g id="Group_2388" data-name="Group 2388" transform="translate(-45.5 -775)">
    <g id="Layer_2" data-name="Layer 2" transform="translate(54.5 774.994)">
      <g id="Layer_1" data-name="Layer 1" transform="translate(0 0.006)">
        <path id="Path_2077" data-name="Path 2077" d="M0,2.486A2.67,2.67,0,0,1,2.287.022a2.8,2.8,0,0,1,3.268,3.2C5.047,6,2.071,5.432,0,6.323Z" transform="translate(0 -0.006)"/>
      </g>
    </g>
    <g id="Layer_2-2" data-name="Layer 2" transform="translate(54.5 783)">
      <g id="Layer_1-2" data-name="Layer 1" transform="translate(0 0)">
        <path id="Path_2077-2" data-name="Path 2077" d="M0,3.842A2.67,2.67,0,0,0,2.287,6.307,2.8,2.8,0,0,0,5.555,3.1C5.047.325,2.071.9,0,.006Z" transform="translate(0 -0.006)"/>
      </g>
    </g>
    <g id="Layer_2-3" data-name="Layer 2" transform="translate(45.5 775)">
      <g id="Layer_1-3" data-name="Layer 1" transform="translate(0 0)">
        <path id="Path_2077-3" data-name="Path 2077" d="M5.565,2.486A2.67,2.67,0,0,0,3.278.022,2.8,2.8,0,0,0,.01,3.225C.517,6,3.494,5.432,5.565,6.323Z" transform="translate(0 -0.006)"/>
      </g>
    </g>
    <g id="Layer_2-4" data-name="Layer 2" transform="translate(45.5 783)">
      <g id="Layer_1-4" data-name="Layer 1" transform="translate(0 0)">
        <path id="Path_2077-4" data-name="Path 2077" d="M5.565,3.842A2.67,2.67,0,0,1,3.278,6.307,2.8,2.8,0,0,1,.01,3.1C.517.325,3.494.9,5.565.006Z" transform="translate(0 -0.006)"/>
      </g>
    </g>
  </g>
</svg>
