<svg xmlns="http://www.w3.org/2000/svg" width="42.451" height="23.676" viewBox="0 0 42.451 23.676">
  <g id="team" transform="translate(0 -27.118)">
    <path id="Path_2169" data-name="Path 2169" d="M39.923,230.163c-.206-.118-.42-.239-.638-.37l-1.626-.975a6.151,6.151,0,0,0,1.546-2.757,3.855,3.855,0,0,0,.1-.861v-4.116a4.8,4.8,0,0,0-3.59-4.3,4.6,4.6,0,0,0-4.819.74c-1.045.184-2.51,1.012-2.46,4.22,0,.028,0,.051,0,.07V225.2a3.817,3.817,0,0,0,.1.859,6.138,6.138,0,0,0,1.545,2.76l-1.6.958-.035.02c-.216.129-.427.25-.631.366a7.274,7.274,0,0,0-1.666,1.157l-1.146-.687a6.154,6.154,0,0,0,1.546-2.757,3.892,3.892,0,0,0,.1-.862v-1.829h0V222.9a4.8,4.8,0,0,0-3.587-4.3,4.6,4.6,0,0,0-4.819.738c-1.045.184-2.511,1.012-2.46,4.219,0,.029,0,.053,0,.07v3.39a4.037,4.037,0,0,0,.1.862,6.148,6.148,0,0,0,1.547,2.757l-1.144.687a7.288,7.288,0,0,0-1.667-1.158c-.206-.118-.42-.238-.638-.369l-.017-.01,0,0-1.6-.961a6.147,6.147,0,0,0,1.546-2.758,3.834,3.834,0,0,0,.1-.861v-4.116a4.8,4.8,0,0,0-3.588-4.3,4.6,4.6,0,0,0-4.821.739c-1.045.184-2.509,1.012-2.458,4.219,0,.029,0,.053,0,.071v3.39a3.832,3.832,0,0,0,.1.86,6.151,6.151,0,0,0,1.546,2.759l-1.627.975c-.218.131-.431.252-.637.369C1.228,230.9,0,231.6,0,233.632v3.653a1.058,1.058,0,0,0,.272.768.964.964,0,0,0,.717.248H12.647v.8a1.058,1.058,0,0,0,.274.77.964.964,0,0,0,.717.249h.09l.092,0h.716a.622.622,0,1,0,0-1.244H13.89v-3.426c0-1.258.549-1.619,1.9-2.386l.063-.036.263-.151,1.037.672,1.069.692.027.016c.075.043.14.089.2.132a1.234,1.234,0,0,0,.68.259.812.812,0,0,0,.4-.1l.085.335L18.4,237.5l0,.006a.642.642,0,0,0,.041.645l.424.721H17.407a.622.622,0,1,0,0,1.244H28.631l.092,0h.09a.97.97,0,0,0,.72-.249,1.06,1.06,0,0,0,.273-.77v-.8H41.372l.09,0a.964.964,0,0,0,.717-.249,1.056,1.056,0,0,0,.273-.768v-3.653c0-2.033-1.228-2.731-2.529-3.469Zm-27.428.183-1.581,1.022c-.065.039-.123.076-.175.111l-.34-.36-.018-.019-.567-.6q.092-.031.186-.066a5.869,5.869,0,0,0,1.384-.753ZM5.974,218.724a.622.622,0,0,0,.438-.24c.631-.819,2.116-1.036,3.61-.527,1.266.431,2.745,1.509,2.745,3.126v1.662H12.5c-.613,0-1.009-.342-1.6-.9a4.088,4.088,0,0,0-2.951-1.408H6.836c-1.353,0-1.579,1.1-1.714,1.756-.155.755-.229.9-.724.9h-.01V221.81c0-.023,0-.053,0-.09-.03-1.892.5-2.9,1.587-3Zm-1.517,7.057a2.588,2.588,0,0,1-.069-.581v-.858H4.4c1.552,0,1.806-1.234,1.942-1.9.157-.763.222-.763.5-.763H7.95a2.9,2.9,0,0,1,2.1,1.072,3.487,3.487,0,0,0,2.454,1.235h.262V225.2a2.591,2.591,0,0,1-.069.583,5.349,5.349,0,0,1-3.132,3.486,2.789,2.789,0,0,1-.988.2,2.79,2.79,0,0,1-.989-.205,5.349,5.349,0,0,1-3.132-3.488Zm4.787,5.926-.2.79H8.109l-.2-.787L8.578,231Zm-3.473-2.026a5.866,5.866,0,0,0,1.383.753q.095.035.187.066l-.924.979c-.052-.035-.11-.072-.176-.111l-1.58-1.022Zm.016,6.643.431.732H1.244v-3.424c0-1.26.548-1.621,1.9-2.389l.326-.186,2.108,1.363.025.015c.075.043.14.088.2.132a1.237,1.237,0,0,0,.684.265.8.8,0,0,0,.395-.106l.085.333-1.212,2.625A.643.643,0,0,0,5.787,236.324Zm3.7.732H7.661l-.655-1.111,1.017-2.2h1.1l1.017,2.2Zm3.158-1.61v1.61H10.932l.431-.731a.644.644,0,0,0,.03-.639l-1.212-2.625.086-.335a.807.807,0,0,0,.4.108,1.24,1.24,0,0,0,.687-.267c.063-.043.128-.088.2-.131l.023-.014,2.108-1.364.326.187a9.141,9.141,0,0,1,1.162.735C13.875,232.716,12.647,233.414,12.647,235.445Zm25.142-5.1-1.578,1.021c-.066.039-.125.077-.177.112l-.34-.361-.022-.023-.562-.6c.061-.02.123-.042.186-.065a5.9,5.9,0,0,0,1.384-.754ZM31.27,218.724a.621.621,0,0,0,.439-.24c.63-.818,2.113-1.036,3.608-.527,1.267.432,2.747,1.509,2.747,3.127v1.662H37.8c-.613,0-1.008-.341-1.6-.9a4.088,4.088,0,0,0-2.953-1.409H32.13c-1.353,0-1.579,1.1-1.713,1.757-.155.755-.228.9-.721.9h-.013V221.81c0-.022,0-.053,0-.09-.029-1.893.5-2.9,1.589-3Zm-1.516,7.058a2.593,2.593,0,0,1-.071-.582v-.858H29.7c1.55,0,1.8-1.234,1.939-1.9.157-.763.221-.763.495-.763h1.114a2.9,2.9,0,0,1,2.1,1.072,3.484,3.484,0,0,0,2.453,1.235h.264V225.2a2.619,2.619,0,0,1-.071.584,5.348,5.348,0,0,1-3.133,3.486,2.484,2.484,0,0,1-1.973,0,5.341,5.341,0,0,1-3.132-3.487Zm4.785,5.927-.2.789H33.4l-.2-.787.669-.709Zm-3.472-2.026a5.874,5.874,0,0,0,1.383.752c.063.023.125.046.187.066l-.924.978c-.052-.034-.11-.071-.176-.11l-1.579-1.022Zm-5.923,2.48-1.578,1.022c-.066.038-.125.076-.177.11l-.925-.978.186-.066a5.869,5.869,0,0,0,1.385-.755Zm-6.519-11.624a.622.622,0,0,0,.438-.24c.63-.818,2.114-1.034,3.608-.525,1.266.431,2.744,1.508,2.744,3.125v1.584h0v.078h-.262c-.613,0-1.008-.341-1.6-.9a4.088,4.088,0,0,0-2.953-1.409H19.483c-1.353,0-1.579,1.1-1.714,1.757-.155.755-.228.9-.721.9h-.013v-1.29c0-.023,0-.053,0-.09-.03-1.892.5-2.9,1.589-3ZM17.106,227.6a2.8,2.8,0,0,1-.07-.59v-.856h.013c1.551,0,1.8-1.234,1.94-1.9.156-.763.222-.763.5-.763H20.6a2.9,2.9,0,0,1,2.1,1.072,3.484,3.484,0,0,0,2.453,1.235h.262v1.208a2.636,2.636,0,0,1-.069.585,5.36,5.36,0,0,1-3.131,3.486,2.48,2.48,0,0,1-1.977,0,5.355,5.355,0,0,1-3.131-3.481Zm4.786,5.918-.2.789h-.935l-.2-.787.669-.708Zm-2.829-.229c-.051-.034-.109-.071-.176-.109l-1.578-1.022,1.109-.667a5.929,5.929,0,0,0,1.386.756c.062.022.124.044.184.064Zm3.074,5.578H20.309l-.654-1.114,1.016-2.2h1.106l1.015,2.2Zm6.425,0H23.58l.431-.731a.649.649,0,0,0,.032-.635l0-.006-1.21-2.626.085-.333a.809.809,0,0,0,.4.108,1.243,1.243,0,0,0,.683-.264c.064-.044.129-.089.2-.132l.027-.016,2.106-1.364.261.15.067.038c1.351.767,1.9,1.128,1.9,2.385Zm2.528-2.537.425.721H29.8v-1.61c0-2.031-1.228-2.728-2.528-3.467h0a9.028,9.028,0,0,1,1.161-.734c.107-.061.216-.123.328-.187l2.107,1.363.024.016c.075.043.14.088.2.131a1.241,1.241,0,0,0,.685.261.811.811,0,0,0,.393-.1l.085.335-1.211,2.626v0A.637.637,0,0,0,31.089,236.334Zm3.694.721H32.956l-.654-1.113,1.016-2.2h1.105l1.016,2.2Zm6.425,0H36.226l.43-.731a.64.64,0,0,0,.05-.6c0-.012-.011-.026-.017-.038l-1.212-2.626.085-.334a.809.809,0,0,0,.4.108,1.243,1.243,0,0,0,.686-.266c.063-.043.129-.088.2-.131l.025-.016,2.106-1.363c.111.065.221.126.328.187,1.351.767,1.9,1.128,1.9,2.388Z" transform="translate(0 -189.323)"/>
  </g>
</svg>
